<?xml version="1.0" encoding="utf-8" ?><svg xmlns="http://www.w3.org/2000/svg" xmlns:xlink="http://www.w3.org/1999/xlink" width="1536" height="1024" viewBox="0 0 1536 1024"><path fill="#1E1E1E" d="M889.536 181.625C901.748 186.088 920.394 195.085 932.661 200.574L1025.63 242.873C1025.14 263.864 1025.48 286.397 1025.45 307.516L1025.37 431.856L1025.41 475.788C1025.42 485.002 1025.94 505.64 1023.38 513.628C1020.19 523.584 991.367 542.928 982.679 549.27C960.306 565.607 937.597 581.477 914.566 596.871C886.32 616.085 857.904 635.049 829.323 653.76C809.23 666.997 790.69 679.532 769.979 691.956C715.676 657.137 661.919 621.474 608.726 584.982C586.844 570.103 564.881 554.926 543.71 539.031C538.628 535.216 518.427 520.585 516.887 515.141C513.541 503.314 514.416 486.104 514.409 473.649L514.394 419.95L514.387 242.506C559.644 223.276 604.715 201.309 650.116 181.847C651.184 222.116 650.211 268.054 650.206 308.7L650.214 356.905C632.077 366.597 612.797 378.321 594.868 388.751C595.498 345.682 594.699 301.826 595.001 258.607C586.946 261.476 574.553 267.051 566.354 270.463L566.426 480.043C624.118 534.834 685.747 586.982 744.257 641.008C752.673 648.779 761.456 656.586 770.14 664.05L902.497 544.517C926.042 522.937 949.715 501.497 973.515 480.198L973.476 270.351C964.603 266.329 953.923 262.269 944.861 258.889C945.889 300.363 944.896 346.881 944.967 388.843C926.374 378.304 908.464 367.119 889.564 356.701L889.536 181.625Z"/><path fill="#1E1E1E" d="M769.485 102.646C774.933 104.552 792.948 114.714 798.866 117.936C817.689 128.307 836.597 138.523 855.587 148.584L855.549 548.573C847.348 555.704 839.094 563.611 831.163 571.065C831.18 570.668 831.194 570.271 831.206 569.874C831.71 553.856 831.295 535.758 831.295 519.56L831.224 419.726L831.304 367.063C831.337 352.232 832.245 337.608 829.268 322.972C824.7 300.509 803.988 297.6 800.682 274.608C797.966 255.714 799.122 237.444 798.885 218.423C798.728 205.851 798.888 193.322 798.93 180.759C798.909 175.34 801.995 177.838 801.756 173.183C801.171 161.785 799.137 156.29 799.536 144.331C795.405 138.273 777.48 122.19 770.732 115.782C767.799 116.036 745.15 140.363 741.542 144.087C741.841 154.122 740.121 162.007 739.429 171.892C739.195 175.229 742.18 177.224 742.2 178.28C742.733 206.353 742.884 234.609 742.183 262.677C741.927 297.41 713.553 297.013 710.351 329.259C709.273 340.118 709.566 350.644 709.571 361.526L709.621 408.68L709.661 571.136C701.58 563.599 693.407 555.762 684.921 548.716C684.096 505.066 684.766 459.299 684.758 415.507L684.564 148.485C712.564 132.966 741.318 118.037 769.485 102.646Z"/><path fill="#1E1E1E" d="M449.307 804.503C506.527 797.968 518.851 884.775 456.649 889.859C443.179 890.422 431.766 888.17 421.428 879.509C396.169 858.35 404.666 815.499 436.609 806.501C441.307 805.178 444.486 804.849 449.307 804.503ZM454.866 875.525C465.078 874.639 474.019 868.315 478.258 858.98C482.497 849.645 481.376 838.749 475.324 830.473C469.273 822.198 459.231 817.828 449.053 819.041C433.661 820.875 422.586 834.721 424.173 850.144C425.76 865.567 439.423 876.865 454.866 875.525Z"/><path fill="#1E1E1E" d="M313.097 805.729L329.12 805.684C342.488 820.689 360.685 845.164 373.576 861.406L373.569 805.838L390.559 805.703L390.574 888.243L375.097 888.255C362.763 874.72 341.663 847.179 330.226 832.176C329.928 850.608 330.223 869.743 330.257 888.228L313.375 888.264C313.077 860.754 312.985 833.241 313.097 805.729Z"/><path fill="#1E1E1E" d="M1031.41 806.073C1037.04 806.105 1042.68 806.02 1048.32 805.817C1048.57 832.818 1048.45 859.822 1047.96 886.82L1047.62 887.777C1044.44 888.642 1036.51 888.276 1032.84 888.24C1027.94 883.25 1019.91 872.842 1015.37 867.151L987.602 832.211C987.14 850.401 987.488 869.847 987.45 888.135L970.652 888.095C970.288 860.911 970.5 833.255 970.512 806.053L986.735 806.335C999.733 820.642 1020.03 846.988 1031.66 862.334C1030.87 845.019 1031.42 823.669 1031.41 806.073Z"/><path fill="#1E1E1E" d="M757.337 806.053C762.083 805.904 767.008 806.002 771.768 806.029C775.461 809.71 783.599 820.563 787.121 825.009C796.843 837.421 806.707 849.721 816.711 861.905C816.599 843.341 816.601 824.777 816.72 806.214L833.235 806.158C833.237 832.385 833.936 862.272 833.042 888.2L817.4 888.226L772.649 832.489L772.659 888.239L756.479 888.224C755.694 876.691 756.164 859.951 756.128 847.895C756.093 835.889 755.534 818.505 756.327 806.869L757.337 806.053Z"/><path fill="#1E1E1E" d="M618.321 805.803C624.181 805.734 630.041 805.736 635.901 805.81C648.49 832.3 661.103 861.276 672.727 888.218L654.972 888.252C652.209 882.285 649.866 876.595 647.387 870.505L636.693 870.264C626.646 870.163 616.598 870.265 606.555 870.569C604.562 875.98 601.377 882.799 599.013 888.202L581.389 888.227C593.692 863.027 606.26 832.065 618.321 805.803ZM612.477 856.88L629.438 856.918L641.368 856.871C639.459 852.402 628.446 826.053 626.608 823.512C621.971 834.464 616.835 845.881 612.477 856.88Z"/><path fill="#1E1E1E" d="M571.245 805.827C577.328 805.712 583.784 805.857 589.897 805.901L583.105 822.014C573.658 843.888 564.98 866.522 555.254 888.208L538.15 888.242C534.791 882.075 528.669 866.038 525.752 858.966L503.638 805.992L522.209 805.815C530.759 826.113 538.945 846.562 546.761 867.154L571.245 805.827Z"/><path fill="#1E1E1E" d="M526.605 536.851C530.073 539.089 542.629 553.256 546.874 557.372C559.388 569.288 572.411 580.656 585.908 591.445C637.715 632.434 699.831 663.941 759.433 691.76C750.322 691.241 722.839 681.212 713.443 678.201C633.177 652.478 572.452 607.88 526.605 536.851Z"/><path fill="#1E1E1E" d="M1012.84 537.13L1012.86 538.335C957.764 626.641 879.341 665.728 782.254 691.849C782.22 690.912 793.205 686.457 794.916 685.645C813.344 676.932 831.594 667.848 849.656 658.4C911.215 626.13 966.342 589.486 1012.84 537.13Z"/><path fill="#1E1E1E" d="M854.032 806.004C874.301 805.619 896.59 806.71 916.598 805.607C916.765 810.253 916.641 815.259 916.612 819.936L871.252 819.989L871.073 842.132C884.878 841.928 898.686 841.981 912.49 842.291L912.287 855.803C898.483 855.748 884.678 855.837 870.876 856.068L870.748 888.209L854.072 888.234C853.444 870.992 854.102 852.699 853.721 835.308C853.609 830.21 853.302 809.587 854.032 806.004Z"/><path fill="#1E1E1E" d="M1166.57 806.01C1173.11 805.908 1179.64 805.947 1186.18 806.127C1193.27 817.714 1199.53 829.842 1206.85 841.566C1213.48 829.773 1220.22 818.048 1227.09 806.393C1233.55 806.284 1240 806.125 1246.45 805.917C1240.12 814.977 1233.94 825.717 1228.2 835.259C1223.92 842.437 1219.6 849.589 1215.24 856.716C1215.05 867.078 1215.15 877.839 1215.11 888.233L1198.1 888.236L1198.01 857.766C1189.63 843.279 1175.78 819.5 1166.57 806.01Z"/><path fill="#1E1E1E" d="M1095.84 806.008L1165.45 805.995L1165.22 819.964C1156.52 819.958 1147.83 820.025 1139.14 820.165L1139.14 862.332L1139.13 888.234L1122.04 888.254L1121.99 820.087L1095.87 820.119L1095.84 806.008Z"/><path fill="#1E1E1E" d="M932.386 806.018L949.656 805.949L949.651 888.225L932.436 888.232L932.386 806.018Z"/><path fill="#1E1E1E" d="M1078.19 806.065L1085.91 805.892C1085.97 831.66 1086.82 862.341 1085.81 887.713C1084.28 888.464 1080.4 888.184 1078.41 888.186L1069.35 888.143C1067.84 864.93 1068.92 830.134 1068.9 806.294L1078.19 806.065Z"/><path fill="#1E1E1E" d="M718.398 806.219L735.008 806.255C735.333 833.393 735.061 861.016 735.039 888.19L718.486 888.236C717.901 861.522 718.37 833.028 718.398 806.219Z"/></svg>